<svg width="108" height="30" viewBox="0 0 108 30" fill="none" xmlns="http://www.w3.org/2000/svg">
<path d="M22.0206 3.0808C20.629 3.0808 19.4401 3.5826 18.4539 4.57263C17.4677 5.56266 16.9678 6.75613 16.9678 8.15302C16.9678 9.87541 17.7514 11.1909 19.305 12.0996C19.8995 12.4386 21.5072 12.9947 24.1417 13.7542C26.1276 14.3509 27.5597 15.0426 28.4244 15.8292C29.6673 16.9548 30.2888 18.5958 30.2888 20.7251C30.2888 22.8136 29.5592 24.5767 28.0866 26.0414C26.6275 27.5061 24.8712 28.2249 22.8177 28.2249H15.5898C15.279 28.2249 14.9953 28.1164 14.7792 27.8859C14.5495 27.6553 14.4414 27.3841 14.4414 27.0721V26.9636C14.4414 26.6517 14.5495 26.3669 14.7792 26.1499C15.0088 25.9194 15.279 25.8109 15.5898 25.8109H23.0068C24.3848 25.8109 25.5737 25.3091 26.5735 24.319C27.5597 23.329 28.0596 22.1355 28.0596 20.7386C28.0596 19.0434 27.276 17.7143 25.7223 16.7785C25.0874 16.3988 23.4797 15.802 20.8992 14.9883C18.8862 14.3238 17.4542 13.605 16.5895 12.8319C15.3466 11.7199 14.7251 10.1602 14.7251 8.16658C14.7251 6.09158 15.4547 4.31495 16.9002 2.85025C18.3593 1.38554 20.1157 0.666748 22.1962 0.666748H27.303C27.6273 0.666748 27.911 0.775245 28.1407 1.0058C28.3568 1.22279 28.4649 1.49404 28.4649 1.81953V1.92802C28.4649 2.23995 28.3568 2.52475 28.1407 2.74175C27.911 2.9723 27.6408 3.0808 27.303 3.0808H22.0206Z" fill="#D0D3D7"/>
<path d="M35.4915 0.747803C35.8022 0.747803 36.0859 0.856299 36.3021 1.07329C36.5317 1.30385 36.6398 1.57509 36.6398 1.91414V27.0447C36.6398 27.3566 36.5317 27.6414 36.3021 27.8584C36.0724 28.089 35.8022 28.1975 35.4915 28.1975H35.4374C35.1267 28.1975 34.843 28.089 34.6268 27.8584C34.3971 27.6279 34.2891 27.3566 34.2891 27.0447V1.91414C34.2891 1.58865 34.3971 1.30385 34.6268 1.07329C34.8565 0.856299 35.1267 0.747803 35.4374 0.747803H35.4915Z" fill="#D0D3D7"/>
<path d="M58.4166 11.5436C56.4982 9.61783 54.1879 8.65492 51.4724 8.65492C48.9865 8.65492 46.5142 9.76701 44.0418 11.9776V1.99593C44.0418 1.67044 43.9202 1.38564 43.7041 1.15508C43.4744 0.938088 43.2042 0.82959 42.88 0.82959H42.8259C42.5017 0.82959 42.2315 0.938088 42.0018 1.15508C41.7721 1.38564 41.6641 1.67044 41.6641 1.99593V18.5688C41.6776 21.2677 42.6368 23.5732 44.5552 25.499C46.4601 27.4113 48.7704 28.3606 51.4724 28.3606C54.1879 28.3606 56.4982 27.3977 58.4166 25.4855C60.335 23.5597 61.2807 21.2405 61.2807 18.5146C61.2807 15.7886 60.3215 13.4695 58.4166 11.5436ZM56.7143 23.8309C55.2822 25.2956 53.5259 26.028 51.4589 26.028C49.4054 26.028 47.649 25.2956 46.1899 23.8309C44.7444 22.3662 44.0283 20.6167 44.0283 18.5688C44.0283 16.5074 44.7444 14.7443 46.1899 13.2796C47.649 11.8149 49.4054 11.0825 51.4589 11.0825C53.5259 11.0825 55.2687 11.8149 56.7143 13.2796C58.1734 14.7443 58.903 16.5074 58.903 18.5688C58.903 20.6167 58.1734 22.3798 56.7143 23.8309Z" fill="#D0D3D7"/>
<path d="M66.6864 13.3064H76.873C77.1837 13.3064 77.4674 13.4149 77.6836 13.6319C77.9133 13.8625 78.0213 14.1337 78.0213 14.4728V14.5134C78.0213 14.8389 77.9133 15.1237 77.6836 15.3543C77.4539 15.5713 77.1837 15.6798 76.873 15.6798H66.6864V22.4201C66.6864 23.3559 67.0241 24.1697 67.6861 24.8342C68.3616 25.5123 69.1587 25.8378 70.0909 25.8378H76.8595C77.1702 25.8378 77.4539 25.9463 77.6701 26.1768C77.8998 26.4074 78.0078 26.6786 78.0078 27.0177V27.0584C78.0078 27.3703 77.8998 27.6551 77.6701 27.8721C77.4404 28.1027 77.1702 28.2112 76.8595 28.2112H70.0909C68.4832 28.2112 67.1187 27.6415 65.9974 26.5159C64.876 25.3902 64.3086 24.0205 64.3086 22.4066V6.56605C64.3086 4.95216 64.876 3.58239 65.9974 2.45674C67.1187 1.33108 68.4832 0.761475 70.0909 0.761475H76.8595C77.1702 0.761475 77.4539 0.869971 77.6701 1.10053C77.8998 1.33108 78.0078 1.60232 78.0078 1.91425V1.95494C78.0078 2.28043 77.8998 2.56523 77.6701 2.79579C77.4404 3.02634 77.1702 3.13484 76.8595 3.13484H70.0909C69.1587 3.13484 68.3481 3.47389 67.6861 4.13844C67.0106 4.81654 66.6864 5.6167 66.6864 6.55249V13.3064Z" fill="#D0D3D7"/>
<path d="M83.7215 22.4065C83.7215 23.3423 84.0593 24.156 84.7213 24.8205C85.3833 25.4851 86.1939 25.8241 87.1261 25.8241H92.6517C92.9759 25.8241 93.2596 25.9326 93.4893 26.1632C93.719 26.3937 93.8271 26.665 93.8271 27.004V27.0447C93.8271 27.3566 93.719 27.6414 93.4893 27.8584C93.2596 28.089 92.9894 28.1975 92.6517 28.1975H87.1261C85.5184 28.1975 84.1538 27.6279 83.0325 26.5022C81.9112 25.3766 81.3438 24.0068 81.3438 22.3929V1.91414C81.3438 1.58865 81.4518 1.30385 81.6815 1.07329C81.9112 0.856299 82.1814 0.747803 82.4921 0.747803H82.5461C82.8569 0.747803 83.1406 0.856299 83.3567 1.07329C83.5864 1.30385 83.6945 1.57509 83.6945 1.91414V22.4065H83.7215Z" fill="#D0D3D7"/>
<path d="M57.8908 16.1411C57.526 15.1375 56.5803 14.4187 55.4589 14.4187C54.0269 14.4187 52.865 15.585 52.865 17.0226C52.865 18.1076 53.527 19.0298 54.4592 19.4231C54.4862 19.4638 54.5267 19.4909 54.5538 19.5316C50.0549 19.5316 50.5278 23.2747 49.9873 23.8172C49.4605 24.3597 48.9741 24.0749 48.6634 24.3868C48.5283 24.5225 48.4607 24.7937 48.5147 24.9429C49.3254 25.2684 50.19 25.4176 51.1222 25.4176C53.0947 25.4176 54.7564 24.7259 56.1209 23.329C57.5125 21.9321 58.2015 20.264 58.2015 18.311C58.2015 17.6058 58.1069 16.9412 57.9313 16.3174" fill="#D0D3D7"/>
</svg>
